<svg width="20" height="20" viewBox="0 0 20 20" fill="none" xmlns="http://www.w3.org/2000/svg">
<path fill-rule="evenodd" clip-rule="evenodd" d="M2 0H18C19.1046 0 20 0.895431 20 2V18C20 19.1046 19.1046 20 18 20H2C0.895431 20 0 19.1046 0 18V2C0 0.895431 0.895431 0 2 0ZM15.6823 7.73106C16.0861 7.35422 16.1079 6.72143 15.7311 6.31768C15.3542 5.91393 14.7214 5.89211 14.3177 6.26894L8.57143 11.6321L6.68232 9.86895C6.27857 9.49211 5.64578 9.51393 5.26894 9.91768C4.89211 10.3214 4.91393 10.9542 5.31768 11.3311L8.57143 14.3679L15.6823 7.73106Z" fill="#006BC9"/>
</svg>
