<svg width="24" height="24" viewBox="0 0 24 24" fill="none" xmlns="http://www.w3.org/2000/svg">
<path d="M7 11V10H9V11H7Z" fill="#282f36"/>
<path d="M9 14V13H7V14H9Z" fill="#282f36"/>
<path d="M7 17V16H9V17H7Z" fill="#282f36"/>
<path d="M13 10H11V11H13V10Z" fill="#282f36"/>
<path d="M11 13H13V14H11V13Z" fill="#282f36"/>
<path d="M13 16H11V17H13V16Z" fill="#282f36"/>
<path d="M15 11V10H17V11H15Z" fill="#282f36"/>
<path d="M17 14V13H15V14H17Z" fill="#282f36"/>
<path d="M15 17V16H17V17H15Z" fill="#282f36"/>
<path fill-rule="evenodd" clip-rule="evenodd" d="M9 3H8V4H6C4.89543 4 4 4.89543 4 6V18C4 19.1046 4.89543 20 6 20H18C19.1046 20 20 19.1046 20 18V6C20 4.89543 19.1046 4 18 4H16V3H15V4H9V3ZM8 5V6H9V5H15V6H16V5H18C18.5523 5 19 5.44772 19 6V7H5V6C5 5.44772 5.44772 5 6 5H8ZM19 8H5V18C5 18.5523 5.44772 19 6 19H18C18.5523 19 19 18.5523 19 18V8Z" fill="#282f36"/>
</svg>
