<svg width="19" height="20" viewBox="0 0 19 20" fill="none" xmlns="http://www.w3.org/2000/svg">
<path d="M19 9C19 15.708 14.4801 15.437 13.9059 15.437C13.2557 15.437 12.6952 15.304 12.2223 15.04C11.7494 14.775 11.3926 14.395 11.1498 13.901C10.7719 14.402 10.3318 14.778 9.82828 15.029C9.32583 15.28 8.78011 15.405 8.19006 15.405C7.63906 15.405 7.14506 15.291 6.71122 15.061C6.27633 14.832 5.91533 14.508 5.62822 14.088C5.34111 13.67 5.13633 13.164 5.016 12.574C4.89567 11.982 4.87244 11.322 4.94844 10.592C5.05506 9.675 5.26406 8.846 5.57861 8.105C5.89106 7.364 6.28056 6.732 6.745 6.209C7.2105 5.687 7.73933 5.284 8.3315 5C8.92578 4.717 9.55489 4.576 10.2199 4.576C12.3584 4.576 13.4742 5.597 13.7011 5.747L13.1227 11.956C13.0773 12.314 12.9084 13.707 14.3133 13.707C14.6838 13.707 16.8889 13.25 16.8889 9C16.8889 8.867 17.8568 2 9.94861 2C3.45272 2 2.11111 7.896 2.11111 10C2.11111 18.388 7.71822 18 9.5 18C11.6333 18 12.7226 17.574 12.9643 17.467L13.4362 19.292C13.1712 19.457 12.1167 20 9.5 20C6.26683 20 0 19.854 0 10C0 8.638 0.791667 0 9.994 0C18.8016 0 19 7.563 19 9ZM7.46489 10.592C7.3815 11.537 7.46911 12.255 7.72561 12.746C7.98211 13.236 8.39906 13.481 8.97328 13.481C10.1376 13.481 10.7192 12.045 10.8553 11.687L11.3314 6.606C11.1952 6.563 10.5904 6.466 10.4247 6.466C9.55595 6.466 8.88039 6.817 8.40011 7.519C7.92089 8.222 7.60844 9.246 7.46489 10.592Z" fill="#888A8F"/>
</svg>
