<svg width="24" height="24" viewBox="0 0 24 24" fill="none" xmlns="http://www.w3.org/2000/svg">
<path fill-rule="evenodd" clip-rule="evenodd" d="M22 12C22 17.5228 17.5228 22 12 22C6.47715 22 2 17.5228 2 12C2 6.47715 6.47715 2 12 2C17.5228 2 22 6.47715 22 12Z" fill="#00B336"/>
<path fill-rule="evenodd" clip-rule="evenodd" d="M17.7348 8.32172C18.1094 8.72754 18.0841 9.3602 17.6783 9.7348L10.4723 16.3865L7.29289 13.2071C6.90237 12.8166 6.90237 12.1834 7.29289 11.7929C7.68342 11.4024 8.31658 11.4024 8.70711 11.7929L10.5277 13.6135L16.3217 8.2652C16.7275 7.89059 17.3602 7.9159 17.7348 8.32172Z" fill="white"/>
</svg>
