<svg width="24" height="24" viewBox="0 0 24 24" fill="none" xmlns="http://www.w3.org/2000/svg">
<path fill-rule="evenodd" clip-rule="evenodd" d="M12 22C17.5228 22 22 17.5228 22 12C22 6.47715 17.5228 2 12 2C6.47715 2 2 6.47715 2 12C2 17.5228 6.47715 22 12 22ZM10.6069 10.0005V5H8V18.6006H10.6069V13.665C10.6069 12.8363 10.6842 12.2116 10.8389 11.791C10.9997 11.3643 11.2502 11.0457 11.5903 10.8354C11.9305 10.6252 12.3171 10.52 12.75 10.52C13.1273 10.52 13.4396 10.6035 13.687 10.7705C13.9406 10.9313 14.1169 11.1509 14.2158 11.4292C14.3148 11.7075 14.3643 12.3631 14.3643 13.396V18.6006H16.9712V12.8208C16.9712 11.9364 16.9248 11.2839 16.832 10.8633C16.7454 10.4427 16.5785 10.0592 16.3311 9.71289C16.0898 9.36654 15.728 9.08203 15.2456 8.85938C14.7632 8.63672 14.222 8.52539 13.6221 8.52539C12.4531 8.52539 11.4481 9.01709 10.6069 10.0005Z" fill="#CC0E0E"/>
</svg>
