<svg width="9" height="13" viewBox="0 0 9 13" fill="none" xmlns="http://www.w3.org/2000/svg">
<path d="M4.5 12.6524C4.454 12.5864 3.353 11.0054 2.25 9.15238C1.224 7.43338 0 5.14239 0 4.00638C0.0708593 2.88092 0.583545 1.82903 1.4264 1.07983C2.26925 0.33063 3.37399 -0.0551963 4.5 0.00638464C5.62601 -0.0551963 6.73075 0.33063 7.5736 1.07983C8.41645 1.82903 8.92914 2.88092 9 4.00638C9 5.14638 7.776 7.43738 6.75 9.15938C5.65 11.0084 4.55 12.5894 4.5 12.6594V12.6524ZM4.5 2.40638C3.93696 2.37546 3.38452 2.56833 2.96306 2.94296C2.54161 3.31758 2.2853 3.8436 2.25 4.40638C2.28556 4.96907 2.54194 5.49494 2.96333 5.86951C3.38473 6.24408 3.93703 6.43704 4.5 6.40638C5.06297 6.43704 5.61527 6.24408 6.03667 5.86951C6.45806 5.49494 6.71444 4.96907 6.75 4.40638C6.71444 3.8437 6.45806 3.31783 6.03667 2.94326C5.61527 2.56869 5.06297 2.37573 4.5 2.40638Z" fill="url(#paint0_linear)"/>
<defs>
<linearGradient id="paint0_linear" x1="4.5" y1="4.43078" x2="4.5" y2="33.7626" gradientUnits="userSpaceOnUse">
<stop stop-color="#46647F"/>
<stop offset="1" stop-color="#46647F"/>
</linearGradient>
</defs>
</svg>
