<svg width="17" height="17" viewBox="0 0 17 17" fill="none" xmlns="http://www.w3.org/2000/svg">
<path d="M14.5143 2.48958C13.0564 1.03209 11.1185 0.15387 9.06128 0.0183911C7.00406 -0.117087 4.96769 0.499403 3.33118 1.75312C1.69467 3.00683 0.569526 4.81235 0.165161 6.83363C-0.239204 8.8549 0.104761 10.9542 1.13304 12.7408L1.61941 13.5835L1.36263 14.5214L0.892871 16.2385L2.72356 15.7567L3.61927 15.5226L4.43191 15.9651C6.22747 16.9426 8.31516 17.2404 10.3125 16.8041C12.3098 16.3677 14.083 15.2265 15.3072 13.5894C16.5314 11.9522 17.1246 9.92892 16.9781 7.8901C16.8317 5.85127 15.9554 3.93347 14.5098 2.48807L14.5143 2.48958ZM13.534 12.099C13.3461 12.4081 13.0962 12.675 12.8001 12.8829C12.5041 13.0908 12.1682 13.2353 11.8136 13.3072C11.2778 13.3988 10.728 13.3642 10.208 13.206C9.7152 13.0523 9.23071 12.8734 8.75639 12.6699C6.9965 11.7879 5.49633 10.4633 4.40321 8.8264C3.80715 8.06796 3.44546 7.15208 3.36249 6.19109C3.35608 5.79487 3.43212 5.40164 3.5858 5.03637C3.73948 4.6711 3.96743 4.34176 4.25518 4.06926C4.34031 3.97207 4.44466 3.89357 4.56165 3.83873C4.67863 3.78388 4.80572 3.75388 4.93489 3.7506C5.10407 3.7506 5.27475 3.7506 5.42278 3.75966C5.5708 3.76872 5.78982 3.70077 5.99675 4.19611C6.20369 4.69146 6.71876 5.96003 6.7822 6.08689C6.8241 6.15432 6.84805 6.23136 6.85175 6.31067C6.85545 6.38997 6.83879 6.4689 6.80335 6.53995C6.7388 6.69279 6.65285 6.83567 6.54808 6.96432C6.4212 7.11534 6.28072 7.29656 6.16593 7.41738C6.05113 7.53819 5.90613 7.68166 6.05415 7.93689C6.43691 8.59188 6.91491 9.18634 7.47249 9.70081C8.07693 10.2382 8.77058 10.666 9.5222 10.9648C9.77747 11.0917 9.92549 11.0706 10.0735 10.9014C10.2215 10.7323 10.7094 10.1584 10.8801 9.90317C11.0508 9.64795 11.22 9.69024 11.4541 9.77632C11.6882 9.8624 12.9404 10.4786 13.1942 10.6054C13.4479 10.7323 13.6186 10.7957 13.682 10.9075C13.7489 11.3106 13.6975 11.7245 13.534 12.099Z" fill="#888A8F"/>
</svg>
