<svg width="24" height="24" viewBox="0 0 24 24" fill="none" xmlns="http://www.w3.org/2000/svg">
<path d="M7 11.7692L7.62632 9.94872C9.06959 10.4274 10.118 10.8419 10.7716 11.1923C10.5991 9.6453 10.5083 8.5812 10.4992 8H12.4735C12.4463 8.84615 12.3419 9.90598 12.1604 11.1795C13.0953 10.735 14.1664 10.3248 15.3737 9.94872L16 11.7692C14.8472 12.1282 13.7171 12.3675 12.6097 12.4872C13.1634 12.9402 13.944 13.7479 14.9516 14.9103L13.3177 16C12.7912 15.3248 12.1694 14.406 11.4523 13.2436C10.7806 14.4487 10.1906 15.3675 9.6823 16L8.07564 14.9103C9.12859 13.688 9.882 12.8803 10.3359 12.4872C9.1649 12.2735 8.05295 12.0342 7 11.7692Z" fill="#CC0E0E"/>
</svg>
