<svg width="24" height="24" viewBox="0 0 24 24" fill="none" xmlns="http://www.w3.org/2000/svg">
<path fill-rule="evenodd" clip-rule="evenodd" d="M13.2564 5.5C10.3605 5.5 8.01286 7.84764 8.01286 10.7436C8.01286 12.1917 8.59922 13.5019 9.54867 14.4514C10.4981 15.4008 11.8083 15.9872 13.2564 15.9872C16.1524 15.9872 18.5 13.6395 18.5 10.7436C18.5 7.84764 16.1524 5.5 13.2564 5.5ZM7.01286 10.7436C7.01286 7.29535 9.80821 4.5 13.2564 4.5C16.7047 4.5 19.5 7.29535 19.5 10.7436C19.5 14.1918 16.7047 16.9872 13.2564 16.9872C11.7125 16.9872 10.2988 16.4262 9.20922 15.4979L5.35359 19.3536L4.64648 18.6464L8.50212 14.7908C7.57379 13.7012 7.01286 12.2875 7.01286 10.7436Z" fill="#C0C8D0"/>
</svg>
