<svg width="24" height="24" viewBox="0 0 24 24" fill="none" xmlns="http://www.w3.org/2000/svg">
<circle cx="12" cy="12" r="10" fill="#00AA87"/>
<path d="M14.0391 14.0469C14.0391 13.8281 14.0052 13.6328 13.9375 13.4609C13.875 13.2839 13.7578 13.125 13.5859 12.9844C13.4193 12.8385 13.1823 12.6979 12.875 12.5625C12.5729 12.4219 12.1823 12.276 11.7031 12.125C11.1719 11.9583 10.6771 11.7708 10.2188 11.5625C9.76042 11.3542 9.35677 11.112 9.00781 10.8359C8.66406 10.5599 8.39583 10.2422 8.20312 9.88281C8.01042 9.51823 7.91406 9.09635 7.91406 8.61719C7.91406 8.14844 8.01302 7.72135 8.21094 7.33594C8.41406 6.95052 8.70052 6.61979 9.07031 6.34375C9.4401 6.0625 9.875 5.84635 10.375 5.69531C10.8802 5.54427 11.4375 5.46875 12.0469 5.46875C12.8906 5.46875 13.6198 5.6224 14.2344 5.92969C14.8542 6.23698 15.3333 6.65365 15.6719 7.17969C16.0104 7.70573 16.1797 8.29688 16.1797 8.95312H14.0391C14.0391 8.59896 13.9635 8.28646 13.8125 8.01562C13.6667 7.74479 13.4427 7.53125 13.1406 7.375C12.8438 7.21875 12.4688 7.14062 12.0156 7.14062C11.5781 7.14062 11.2135 7.20573 10.9219 7.33594C10.6354 7.46615 10.4193 7.64323 10.2734 7.86719C10.1328 8.09115 10.0625 8.34115 10.0625 8.61719C10.0625 8.82552 10.112 9.01302 10.2109 9.17969C10.3099 9.34115 10.4583 9.49479 10.6562 9.64062C10.8542 9.78125 11.099 9.91406 11.3906 10.0391C11.6875 10.1589 12.0312 10.2786 12.4219 10.3984C13.0469 10.5859 13.5938 10.7943 14.0625 11.0234C14.5365 11.2526 14.9297 11.513 15.2422 11.8047C15.5599 12.0964 15.7969 12.4245 15.9531 12.7891C16.1146 13.1536 16.1953 13.5677 16.1953 14.0312C16.1953 14.5208 16.099 14.9583 15.9062 15.3438C15.7135 15.7292 15.4375 16.0573 15.0781 16.3281C14.7188 16.599 14.2865 16.8047 13.7812 16.9453C13.2812 17.0859 12.7214 17.1562 12.1016 17.1562C11.5495 17.1562 11.0026 17.0833 10.4609 16.9375C9.92448 16.7865 9.4375 16.5625 9 16.2656C8.5625 15.9635 8.21354 15.5833 7.95312 15.125C7.69271 14.6615 7.5625 14.1198 7.5625 13.5H9.71875C9.71875 13.8594 9.77604 14.1667 9.89062 14.4219C10.0104 14.6719 10.1771 14.8776 10.3906 15.0391C10.6094 15.1953 10.8646 15.3099 11.1562 15.3828C11.4479 15.4557 11.763 15.4922 12.1016 15.4922C12.5391 15.4922 12.8984 15.4323 13.1797 15.3125C13.4661 15.1875 13.6797 15.0156 13.8203 14.7969C13.9661 14.5781 14.0391 14.3281 14.0391 14.0469Z" fill="white"/>
</svg>
