<svg width="16" height="16" viewBox="0 0 16 16" fill="none" xmlns="http://www.w3.org/2000/svg">
<path d="M14.9881 0.504462L7.14518 4.15569C7.0604 4.20849 6.99791 4.29054 6.96954 4.3863C6.94117 4.48205 6.94889 4.58488 6.99123 4.67534C7.03356 4.76579 7.10758 4.8376 7.19928 4.87717C7.29098 4.91674 7.394 4.92131 7.48885 4.89005L12.3268 2.63851L9.97685 4.54784L4.57933 8.91727L1.62281 7.62479L5.76018 5.69931C5.84495 5.64651 5.90743 5.56447 5.9358 5.46871C5.96417 5.37296 5.95645 5.27012 5.91412 5.17966C5.87178 5.0892 5.79777 5.01741 5.70607 4.97784C5.61437 4.93827 5.51135 4.93369 5.4165 4.96495L0.963346 7.03731C0.848345 7.09061 0.751187 7.17598 0.683547 7.28317C0.615907 7.39037 0.580675 7.51481 0.582071 7.64156C0.583467 7.7683 0.62144 7.89194 0.691425 7.99762C0.76141 8.10329 0.860422 8.1865 0.976569 8.23725L4.27237 9.67953L5.23731 15.4721C5.25249 15.5519 5.29095 15.6254 5.34784 15.6834C5.40473 15.7413 5.47751 15.7811 5.55699 15.7978C5.63647 15.8144 5.7191 15.8072 5.79447 15.7769C5.86983 15.7467 5.93456 15.6948 5.98048 15.6278L8.71817 11.4479L13.8969 13.8639C13.9944 13.9079 14.1011 13.9278 14.2079 13.9217C14.3147 13.9157 14.4184 13.8839 14.5103 13.8291C14.6022 13.7742 14.6795 13.698 14.7356 13.6069C14.7916 13.5158 14.8249 13.4125 14.8324 13.3058L15.5668 0.90249C15.5668 0.89074 15.5668 0.878987 15.5668 0.867237C15.5647 0.799775 15.546 0.733864 15.5124 0.675322C15.4788 0.61678 15.4314 0.567407 15.3742 0.531557C15.317 0.495707 15.2519 0.474484 15.1845 0.469759C15.1172 0.465034 15.0497 0.47695 14.9881 0.504462ZM5.71464 13.3425L5.08309 9.55616L11.5117 4.3525L6.59146 9.86899C6.5467 9.91931 6.51494 9.97982 6.49894 10.0452L5.71464 13.3425ZM6.58119 13.225L7.17748 10.7282L7.97793 11.1012L6.58119 13.225ZM8.42882 10.4051L7.56522 10.0026L11.8113 5.24255L11.1974 6.17959L8.42882 10.4051ZM14.0378 13.0223L9.1764 10.7532L14.665 2.38148L14.0378 13.0223Z" fill="#888A8F"/>
</svg>
