<svg width="24" height="24" viewBox="0 0 24 24" fill="none" xmlns="http://www.w3.org/2000/svg">
<path fill-rule="evenodd" clip-rule="evenodd" d="M8.50013 8C8.50013 6.067 10.0671 4.5 12.0001 4.5C13.9331 4.5 15.5001 6.067 15.5001 8C15.5001 9.933 13.9331 11.5 12.0001 11.5C10.0671 11.5 8.50013 9.933 8.50013 8ZM12.0001 3.5C9.51484 3.5 7.50013 5.51472 7.50013 8C7.50013 9.6374 8.37465 11.0705 9.68211 11.8578C6.75093 12.782 4.48512 15.388 3.75355 18.4009C3.39654 19.8713 4.66188 21 6.00013 21H18.0001C19.3384 21 20.6037 19.8713 20.2467 18.4009C19.5151 15.388 17.2493 12.782 14.3181 11.8578C15.6256 11.0705 16.5001 9.6374 16.5001 8C16.5001 5.51472 14.4854 3.5 12.0001 3.5ZM4.72532 18.6369C5.55128 15.2352 8.52446 12.5 12.0001 12.5C15.4758 12.5 18.449 15.2352 19.2749 18.6369C19.4392 19.3133 18.871 20 18.0001 20H6.00013C5.12924 20 4.56108 19.3133 4.72532 18.6369Z" fill="#2D81CE"/>
</svg>
