<svg width="24" height="24" viewBox="0 0 24 24" fill="none" xmlns="http://www.w3.org/2000/svg">
<mask id="path-1-outside-1" maskUnits="userSpaceOnUse" x="0" y="0" width="24" height="24" fill="black">
<rect fill="white" width="24" height="24"/>
<path fill-rule="evenodd" clip-rule="evenodd" d="M22 12C22 17.5228 17.5228 22 12 22C10.2422 22 8.5903 21.5465 7.15499 20.75L2 22L3.33782 17C2.48697 15.5291 2 13.8214 2 12C2 6.47715 6.47715 2 12 2C17.5228 2 22 6.47715 22 12ZM17.5487 14.9648C17.9631 15.1717 18.1881 15.3287 18.2234 15.4352C18.2413 15.477 18.2502 15.539 18.25 15.6221C18.25 15.782 18.2205 15.9905 18.1612 16.2479C18.102 16.5055 18.0401 16.7082 17.9747 16.856C17.8504 17.1521 17.4895 17.4659 16.8918 17.7972C16.3355 18.099 15.7849 18.25 15.2404 18.25C15.0807 18.25 14.9253 18.2395 14.7743 18.219C14.6234 18.1982 14.4534 18.1612 14.2638 18.1078C14.0745 18.0545 13.9338 18.0115 13.8421 17.9789C13.7505 17.9464 13.5862 17.8857 13.3494 17.797C13.1127 17.708 12.9678 17.6548 12.9145 17.6371C12.3345 17.4298 11.8165 17.1843 11.3607 16.9002C10.6031 16.4327 9.82035 15.795 9.01243 14.9871C8.20454 14.1792 7.56672 13.3963 7.09934 12.6388C6.81527 12.1831 6.56964 11.6653 6.36251 11.0852C6.34475 11.0319 6.29142 10.887 6.20273 10.6503C6.11392 10.4134 6.05325 10.2492 6.02076 10.1576C5.98829 10.066 5.94535 9.92529 5.89211 9.73592C5.83878 9.5465 5.80178 9.37632 5.78107 9.22541C5.76036 9.07436 5.75 8.91901 5.75 8.75934C5.75 8.2149 5.90091 7.66437 6.20277 7.10815C6.53425 6.51048 6.84793 6.14947 7.14387 6.02525C7.29186 5.96004 7.49452 5.89798 7.75206 5.83881C8.0095 5.77954 8.2181 5.75 8.378 5.75C8.46078 5.75 8.52297 5.75896 8.56442 5.77671C8.67099 5.8121 8.82781 6.0371 9.03485 6.45131C9.10003 6.56375 9.18875 6.7236 9.30116 6.93063C9.41367 7.13775 9.51716 7.32575 9.61197 7.49441C9.70678 7.6631 9.79843 7.8214 9.88711 7.96925C9.9049 7.99304 9.95668 8.06695 10.0426 8.19124C10.1284 8.31558 10.192 8.4205 10.2335 8.50647C10.2749 8.59226 10.2956 8.67669 10.2956 8.75949C10.2956 8.87784 10.2112 9.02572 10.0426 9.2033C9.87384 9.38079 9.69049 9.5436 9.49213 9.69146C9.29392 9.83931 9.11038 9.99622 8.94172 10.1619C8.77302 10.3276 8.68865 10.4638 8.68865 10.5703C8.68865 10.6236 8.70349 10.6901 8.73303 10.77C8.76257 10.8499 8.78773 10.9106 8.80844 10.952C8.82915 10.9935 8.8706 11.0644 8.93279 11.1651C8.99489 11.2657 9.02901 11.3219 9.03491 11.3338C9.48472 12.1446 9.99975 12.8399 10.5797 13.4201C11.1598 13.9999 11.8552 14.5149 12.666 14.9648C12.6778 14.9707 12.7339 15.0048 12.8348 15.0669C12.9355 15.1293 13.0064 15.1705 13.0477 15.1914C13.0893 15.2118 13.15 15.2372 13.2298 15.2668C13.3097 15.2961 13.3763 15.311 13.4297 15.311C13.5361 15.311 13.6723 15.2267 13.8381 15.058C14.0037 14.8893 14.1606 14.706 14.3085 14.5076C14.4564 14.3092 14.6192 14.1258 14.7967 13.957C14.9742 13.7885 15.1221 13.7041 15.2404 13.7041C15.3233 13.7041 15.4077 13.7249 15.4935 13.7661C15.5795 13.8076 15.6844 13.8713 15.8088 13.957C15.9331 14.0431 16.0071 14.0948 16.0307 14.1125C16.1786 14.2012 16.3368 14.2929 16.5057 14.3876C16.6743 14.4823 16.8623 14.5859 17.0695 14.6984C17.2765 14.8109 17.4364 14.8995 17.5487 14.9648Z"/>
</mask>
<path fill-rule="evenodd" clip-rule="evenodd" d="M22 12C22 17.5228 17.5228 22 12 22C10.2422 22 8.5903 21.5465 7.15499 20.75L2 22L3.33782 17C2.48697 15.5291 2 13.8214 2 12C2 6.47715 6.47715 2 12 2C17.5228 2 22 6.47715 22 12ZM17.5487 14.9648C17.9631 15.1717 18.1881 15.3287 18.2234 15.4352C18.2413 15.477 18.2502 15.539 18.25 15.6221C18.25 15.782 18.2205 15.9905 18.1612 16.2479C18.102 16.5055 18.0401 16.7082 17.9747 16.856C17.8504 17.1521 17.4895 17.4659 16.8918 17.7972C16.3355 18.099 15.7849 18.25 15.2404 18.25C15.0807 18.25 14.9253 18.2395 14.7743 18.219C14.6234 18.1982 14.4534 18.1612 14.2638 18.1078C14.0745 18.0545 13.9338 18.0115 13.8421 17.9789C13.7505 17.9464 13.5862 17.8857 13.3494 17.797C13.1127 17.708 12.9678 17.6548 12.9145 17.6371C12.3345 17.4298 11.8165 17.1843 11.3607 16.9002C10.6031 16.4327 9.82035 15.795 9.01243 14.9871C8.20454 14.1792 7.56672 13.3963 7.09934 12.6388C6.81527 12.1831 6.56964 11.6653 6.36251 11.0852C6.34475 11.0319 6.29142 10.887 6.20273 10.6503C6.11392 10.4134 6.05325 10.2492 6.02076 10.1576C5.98829 10.066 5.94535 9.92529 5.89211 9.73592C5.83878 9.5465 5.80178 9.37632 5.78107 9.22541C5.76036 9.07436 5.75 8.91901 5.75 8.75934C5.75 8.2149 5.90091 7.66437 6.20277 7.10815C6.53425 6.51048 6.84793 6.14947 7.14387 6.02525C7.29186 5.96004 7.49452 5.89798 7.75206 5.83881C8.0095 5.77954 8.2181 5.75 8.378 5.75C8.46078 5.75 8.52297 5.75896 8.56442 5.77671C8.67099 5.8121 8.82781 6.0371 9.03485 6.45131C9.10003 6.56375 9.18875 6.7236 9.30116 6.93063C9.41367 7.13775 9.51716 7.32575 9.61197 7.49441C9.70678 7.6631 9.79843 7.8214 9.88711 7.96925C9.9049 7.99304 9.95668 8.06695 10.0426 8.19124C10.1284 8.31558 10.192 8.4205 10.2335 8.50647C10.2749 8.59226 10.2956 8.67669 10.2956 8.75949C10.2956 8.87784 10.2112 9.02572 10.0426 9.2033C9.87384 9.38079 9.69049 9.5436 9.49213 9.69146C9.29392 9.83931 9.11038 9.99622 8.94172 10.1619C8.77302 10.3276 8.68865 10.4638 8.68865 10.5703C8.68865 10.6236 8.70349 10.6901 8.73303 10.77C8.76257 10.8499 8.78773 10.9106 8.80844 10.952C8.82915 10.9935 8.8706 11.0644 8.93279 11.1651C8.99489 11.2657 9.02901 11.3219 9.03491 11.3338C9.48472 12.1446 9.99975 12.8399 10.5797 13.4201C11.1598 13.9999 11.8552 14.5149 12.666 14.9648C12.6778 14.9707 12.7339 15.0048 12.8348 15.0669C12.9355 15.1293 13.0064 15.1705 13.0477 15.1914C13.0893 15.2118 13.15 15.2372 13.2298 15.2668C13.3097 15.2961 13.3763 15.311 13.4297 15.311C13.5361 15.311 13.6723 15.2267 13.8381 15.058C14.0037 14.8893 14.1606 14.706 14.3085 14.5076C14.4564 14.3092 14.6192 14.1258 14.7967 13.957C14.9742 13.7885 15.1221 13.7041 15.2404 13.7041C15.3233 13.7041 15.4077 13.7249 15.4935 13.7661C15.5795 13.8076 15.6844 13.8713 15.8088 13.957C15.9331 14.0431 16.0071 14.0948 16.0307 14.1125C16.1786 14.2012 16.3368 14.2929 16.5057 14.3876C16.6743 14.4823 16.8623 14.5859 17.0695 14.6984C17.2765 14.8109 17.4364 14.8995 17.5487 14.9648Z" fill="#3BC464"/>
<path d="M7.15499 20.75L8.1254 19.0012C7.68633 18.7576 7.17168 18.688 6.68368 18.8063L7.15499 20.75ZM2 22L0.0679625 21.4831C-0.114485 22.1649 0.0760205 22.8925 0.569234 23.3975C1.06245 23.9024 1.78532 24.11 2.47131 23.9437L2 22ZM3.33782 17L5.26986 17.5169C5.40705 17.0042 5.3348 16.458 5.06903 15.9985L3.33782 17ZM18.2234 15.4352L16.3252 16.0652C16.3427 16.1178 16.3624 16.1697 16.3841 16.2207L18.2234 15.4352ZM17.5487 14.9648L16.5438 16.694C16.5803 16.7152 16.6174 16.7352 16.6551 16.754L17.5487 14.9648ZM18.25 15.6221L16.25 15.6176V15.6221H18.25ZM18.1612 16.2479L16.2123 15.7985L16.212 15.8L18.1612 16.2479ZM17.9747 16.856L16.1455 16.0472C16.1404 16.0587 16.1354 16.0703 16.1305 16.082L17.9747 16.856ZM16.8918 17.7972L17.8455 19.5552C17.8509 19.5523 17.8562 19.5493 17.8616 19.5464L16.8918 17.7972ZM14.7743 18.219L14.5004 20.2002L14.5062 20.201L14.7743 18.219ZM14.2638 18.1078L13.7212 20.0328L13.7223 20.0332L14.2638 18.1078ZM13.8421 17.9789L14.5118 16.0944L14.5114 16.0943L13.8421 17.9789ZM13.3494 17.797L12.6455 19.669L12.6475 19.6698L13.3494 17.797ZM12.9145 17.6371L12.2414 19.5205C12.256 19.5257 12.2707 19.5307 12.2854 19.5356L12.9145 17.6371ZM11.3607 16.9002L12.4186 15.2029L12.4111 15.1982L11.3607 16.9002ZM9.01243 14.9871L7.59821 16.4013L7.59829 16.4014L9.01243 14.9871ZM7.09934 12.6388L8.80146 11.5886L8.79664 11.5809L7.09934 12.6388ZM6.36251 11.0852L4.46515 11.7177C4.46963 11.7311 4.47424 11.7445 4.479 11.7578L6.36251 11.0852ZM6.20273 10.6503L8.07564 9.94868L8.07538 9.94797L6.20273 10.6503ZM6.02076 10.1576L4.13564 10.8257L4.1357 10.8258L6.02076 10.1576ZM5.89211 9.73592L7.81747 9.19464L7.81727 9.19393L5.89211 9.73592ZM5.78107 9.22541L3.7996 9.49707L3.79964 9.49735L5.78107 9.22541ZM6.20277 7.10815L4.45377 6.13809C4.4508 6.14345 4.44785 6.14882 4.44493 6.1542L6.20277 7.10815ZM7.14387 6.02525L7.91794 7.86938C7.92876 7.86484 7.93955 7.8602 7.95029 7.85547L7.14387 6.02525ZM7.75206 5.83881L8.19991 7.78802L8.20073 7.78783L7.75206 5.83881ZM8.56442 5.77671L7.77696 7.61516C7.8285 7.63724 7.88095 7.65714 7.93416 7.67481L8.56442 5.77671ZM9.03485 6.45131L7.24588 7.34551C7.26431 7.38238 7.28388 7.41867 7.30455 7.45433L9.03485 6.45131ZM9.30116 6.93063L7.54355 7.885L7.5437 7.88527L9.30116 6.93063ZM9.61197 7.49441L11.3554 6.51446L11.3554 6.51433L9.61197 7.49441ZM9.88711 7.96925L8.172 8.99803C8.20691 9.05623 8.24476 9.11261 8.2854 9.16696L9.88711 7.96925ZM10.0426 8.19124L11.6884 7.05487L11.6879 7.05421L10.0426 8.19124ZM10.2335 8.50647L8.43167 9.37453L8.43215 9.37552L10.2335 8.50647ZM10.0426 9.2033L11.4921 10.5813L11.4927 10.5807L10.0426 9.2033ZM9.49213 9.69146L8.29688 8.0879L8.29628 8.08835L9.49213 9.69146ZM8.94172 10.1619L7.54037 8.7349L7.54009 8.73517L8.94172 10.1619ZM8.73303 10.77L6.85719 11.4637L6.8572 11.4637L8.73303 10.77ZM8.80844 10.952L10.5983 10.0596L10.597 10.057L8.80844 10.952ZM8.93279 11.1651L10.6345 10.1142L10.6342 10.1138L8.93279 11.1651ZM9.03491 11.3338L7.24511 12.2263C7.25816 12.2525 7.27179 12.2783 7.28598 12.3039L9.03491 11.3338ZM10.5797 13.4201L9.16515 14.834L9.1658 14.8347L10.5797 13.4201ZM12.666 14.9648L11.6957 16.7136C11.7194 16.7268 11.7435 16.7395 11.7678 16.7517L12.666 14.9648ZM12.8348 15.0669L13.8877 13.3665L13.884 13.3642L12.8348 15.0669ZM13.0477 15.1914L12.1458 16.9765C12.1529 16.9801 12.1601 16.9837 12.1673 16.9872L13.0477 15.1914ZM13.2298 15.2668L12.5348 17.1421L12.5389 17.1436L13.2298 15.2668ZM13.8381 15.058L15.2647 16.4597L15.2655 16.4589L13.8381 15.058ZM14.3085 14.5076L15.9118 15.7033L15.9121 15.7027L14.3085 14.5076ZM14.7967 13.957L13.4195 12.5068L13.4186 12.5077L14.7967 13.957ZM15.4935 13.7661L16.363 11.965L16.3603 11.9637L15.4935 13.7661ZM15.8088 13.957L16.9469 12.3124L16.9438 12.3103L15.8088 13.957ZM16.0307 14.1125L14.8294 15.7116C14.885 15.7533 14.9427 15.7921 15.0023 15.8279L16.0307 14.1125ZM16.5057 14.3876L17.4854 12.644L17.4836 12.643L16.5057 14.3876ZM17.0695 14.6984L18.0244 12.9411L18.0237 12.9407L17.0695 14.6984ZM12 24C18.6274 24 24 18.6274 24 12H20C20 16.4183 16.4183 20 12 20V24ZM6.18458 22.4988C7.90919 23.4558 9.89405 24 12 24V20C10.5903 20 9.27141 19.6371 8.1254 19.0012L6.18458 22.4988ZM2.47131 23.9437L7.6263 22.6937L6.68368 18.8063L1.52869 20.0563L2.47131 23.9437ZM1.40578 16.4831L0.0679625 21.4831L3.93204 22.5169L5.26986 17.5169L1.40578 16.4831ZM0 12C0 14.1824 0.584411 16.2344 1.60661 18.0015L5.06903 15.9985C4.38953 14.8239 4 13.4605 4 12H0ZM12 0C5.37258 0 0 5.37258 0 12H4C4 7.58172 7.58172 4 12 4V0ZM24 12C24 5.37258 18.6274 0 12 0V4C16.4183 4 20 7.58172 20 12H24ZM20.1216 14.8052C19.9727 14.3565 19.709 14.0666 19.584 13.9401C19.4358 13.7901 19.2856 13.6762 19.1722 13.5971C18.9443 13.4382 18.6861 13.2973 18.4423 13.1755L16.6551 16.754C16.8257 16.8392 16.8872 16.8802 16.8842 16.8782C16.8833 16.8775 16.8218 16.8357 16.7387 16.7516C16.6951 16.7075 16.629 16.6351 16.5587 16.5339C16.4899 16.4349 16.3957 16.2776 16.3252 16.0652L20.1216 14.8052ZM20.25 15.6266C20.2504 15.4556 20.2412 15.0677 20.0627 14.6496L16.3841 16.2207C16.3042 16.0335 16.2753 15.878 16.2635 15.7956C16.2509 15.7075 16.2499 15.6441 16.25 15.6176L20.25 15.6266ZM20.11 16.6974C20.1847 16.3733 20.25 15.9982 20.25 15.6221H16.25C16.25 15.5843 16.2531 15.5794 16.2476 15.6177C16.2426 15.6535 16.2321 15.7125 16.2123 15.7985L20.11 16.6974ZM19.8039 17.6648C19.9432 17.3497 20.0388 17.0072 20.1104 16.6958L16.212 15.8C16.1904 15.8937 16.172 15.9613 16.158 16.0073C16.1433 16.0553 16.1378 16.0647 16.1455 16.0472L19.8039 17.6648ZM17.8616 19.5464C18.2352 19.3392 18.6027 19.1011 18.9228 18.8229C19.2309 18.5551 19.5943 18.1649 19.8189 17.63L16.1305 16.082C16.1837 15.9554 16.2419 15.8741 16.2721 15.8362C16.3023 15.7981 16.3167 15.7883 16.2988 15.8039C16.2817 15.8187 16.2442 15.8489 16.1791 15.8927C16.1146 15.9361 16.03 15.9882 15.9221 16.048L17.8616 19.5464ZM15.2404 20.25C16.1685 20.25 17.0443 19.9898 17.8455 19.5552L15.9382 16.0392C15.6267 16.2082 15.4012 16.25 15.2404 16.25V20.25ZM14.5062 20.201C14.7475 20.2336 14.9925 20.25 15.2404 20.25V16.25C15.169 16.25 15.1032 16.2453 15.0425 16.2371L14.5062 20.201ZM13.7223 20.0332C13.9761 20.1045 14.2378 20.1639 14.5004 20.2002L15.0482 16.2379C15.0091 16.2325 14.9306 16.2178 14.8052 16.1825L13.7223 20.0332ZM13.1725 19.8635C13.33 19.9195 13.5237 19.9772 13.7212 20.0328L14.8063 16.1828C14.6254 16.1318 14.5377 16.1036 14.5118 16.0944L13.1725 19.8635ZM12.6475 19.6698C12.8834 19.7582 13.0627 19.8245 13.1728 19.8636L14.5114 16.0943C14.4382 16.0683 14.289 16.0133 14.0513 15.9242L12.6475 19.6698ZM12.2854 19.5356C12.2773 19.5329 12.2983 19.54 12.3734 19.5676C12.4393 19.5918 12.5295 19.6254 12.6455 19.669L14.0533 15.9249C13.8321 15.8418 13.6435 15.7717 13.5436 15.7386L12.2854 19.5356ZM10.3029 18.5976C10.8963 18.9674 11.5464 19.2721 12.2414 19.5205L13.5876 15.7538C13.1226 15.5876 12.7366 15.4011 12.4186 15.2029L10.3029 18.5976ZM7.59829 16.4014C8.48665 17.2897 9.38967 18.0341 10.3104 18.6023L12.4111 15.1982C11.8165 14.8314 11.1541 14.3002 10.4266 13.5728L7.59829 16.4014ZM5.39724 13.689C5.96533 14.6098 6.70985 15.513 7.59821 16.4013L10.4267 13.5729C9.69923 12.8455 9.16811 12.1829 8.80144 11.5887L5.39724 13.689ZM4.479 11.7578C4.72743 12.4535 5.03229 13.1035 5.40204 13.6967L8.79664 11.5809C8.59826 11.2626 8.41185 10.877 8.24602 10.4126L4.479 11.7578ZM4.32983 11.3518C4.3736 11.4687 4.40743 11.5597 4.43197 11.6264C4.45988 11.7024 4.46734 11.7243 4.46515 11.7177L8.25987 10.4527C8.22755 10.3558 8.15787 10.1682 8.07564 9.94868L4.32983 11.3518ZM4.1357 10.8258C4.17506 10.9368 4.24174 11.117 4.33009 11.3525L8.07538 9.94797C7.9861 9.70992 7.93145 9.56163 7.90582 9.48932L4.1357 10.8258ZM3.96675 10.2772C4.02259 10.4758 4.08009 10.6689 4.13564 10.8257L7.90587 9.48948C7.8965 9.46303 7.8681 9.37474 7.81747 9.19464L3.96675 10.2772ZM3.79964 9.49735C3.83585 9.76117 3.89541 10.0238 3.96695 10.2779L7.81727 9.19393C7.78215 9.06917 7.7677 8.99146 7.76249 8.95348L3.79964 9.49735ZM3.75 8.75934C3.75 9.00563 3.76598 9.25188 3.7996 9.49707L7.76253 8.95375C7.75473 8.89683 7.75 8.83238 7.75 8.75934H3.75ZM4.44493 6.1542C4.01002 6.9556 3.75 7.83139 3.75 8.75934H7.75C7.75 8.59841 7.7918 8.37314 7.9606 8.0621L4.44493 6.1542ZM6.3698 4.18112C5.83473 4.40571 5.44457 4.7694 5.17702 5.07727C4.89895 5.39726 4.66092 5.7646 4.45377 6.13809L7.95176 8.07821C8.0117 7.97015 8.06379 7.88555 8.10728 7.82093C8.15119 7.75569 8.18138 7.71817 8.19627 7.70104C8.21189 7.68307 8.20212 7.69738 8.16408 7.72766C8.1262 7.75781 8.04473 7.81616 7.91794 7.86938L6.3698 4.18112ZM7.3042 3.88959C6.99109 3.96153 6.65055 4.05708 6.33746 4.19503L7.95029 7.85547C7.93432 7.8625 7.94482 7.85672 7.99294 7.84197C8.03911 7.82782 8.10673 7.80943 8.19991 7.78802L7.3042 3.88959ZM8.378 3.75C8.00175 3.75 7.62659 3.81538 7.30338 3.88978L8.20073 7.78783C8.28707 7.76795 8.34637 7.75748 8.38242 7.75237C8.4209 7.74691 8.41596 7.75 8.378 7.75V3.75ZM9.35188 3.93826C8.93373 3.75915 8.54487 3.75 8.378 3.75V7.75C8.35197 7.75 8.28956 7.74889 8.2027 7.73643C8.12239 7.72491 7.96596 7.69611 7.77696 7.61516L9.35188 3.93826ZM10.8238 5.55711C10.7021 5.31369 10.5613 5.05574 10.4025 4.82805C10.3235 4.71476 10.2097 4.56457 10.0597 4.41638C9.93322 4.29133 9.6434 4.02761 9.19468 3.87861L7.93416 7.67481C7.72175 7.60428 7.5645 7.51009 7.46545 7.44126C7.3643 7.37097 7.2919 7.3048 7.24781 7.26122C7.16373 7.17811 7.12197 7.11669 7.12138 7.11585C7.11943 7.11306 7.16051 7.17471 7.24588 7.34551L10.8238 5.55711ZM11.0588 5.97627C10.9439 5.76478 10.8446 5.58534 10.7652 5.44828L7.30455 7.45433C7.35546 7.54216 7.43356 7.68243 7.54355 7.885L11.0588 5.97627ZM11.3554 6.51433C11.2667 6.35665 11.1681 6.1776 11.0586 5.97599L7.5437 7.88527C7.6592 8.0979 7.76759 8.29485 7.86857 8.47449L11.3554 6.51433ZM11.6022 6.94048C11.5247 6.81121 11.4426 6.66944 11.3554 6.51446L7.86849 8.47435C7.97102 8.65675 8.07216 8.83158 8.172 8.99803L11.6022 6.94048ZM11.6879 7.05421C11.613 6.94577 11.5348 6.83301 11.4888 6.77155L8.2854 9.16696C8.27529 9.15345 8.2708 9.14695 8.27756 9.15645C8.28219 9.16295 8.28981 9.17374 8.3011 9.18986C8.32358 9.22196 8.35534 9.26767 8.39722 9.32827L11.6879 7.05421ZM12.0353 7.63842C11.9304 7.42067 11.8025 7.22017 11.6884 7.05487L8.39676 9.32761C8.4222 9.36445 8.43704 9.3879 8.44408 9.39952C8.44739 9.40498 8.44777 9.40584 8.4459 9.40245C8.4441 9.39917 8.43897 9.38968 8.43167 9.37453L12.0353 7.63842ZM12.2956 8.75949C12.2956 8.33378 12.1874 7.95374 12.0348 7.63743L8.43215 9.37552C8.36232 9.23079 8.29557 9.0196 8.29557 8.75949H12.2956ZM11.4927 10.5807C11.644 10.4213 11.8213 10.2101 11.9698 9.94974C12.113 9.69847 12.2956 9.28568 12.2956 8.75949H8.29557C8.29557 8.35165 8.43593 8.07198 8.49485 7.96863C8.55896 7.85618 8.60978 7.80768 8.59243 7.82595L11.4927 10.5807ZM10.6874 11.295C10.9768 11.0792 11.2452 10.841 11.4921 10.5813L8.59304 7.82531C8.50242 7.92063 8.40413 8.00796 8.29688 8.0879L10.6874 11.295ZM10.3431 11.5888C10.4446 11.4891 10.5591 11.3907 10.688 11.2946L8.29628 8.08835C8.02872 8.28794 7.77613 8.50336 7.54037 8.7349L10.3431 11.5888ZM10.6887 10.5703C10.6887 11.0319 10.5139 11.3418 10.452 11.4417C10.3804 11.5572 10.3245 11.6071 10.3433 11.5885L7.54009 8.73517C7.39024 8.88238 7.20777 9.08318 7.05181 9.33489C6.90557 9.57092 6.68865 10.0021 6.68865 10.5703H10.6887ZM10.6089 10.0763C10.618 10.1009 10.6357 10.1524 10.6521 10.2261C10.668 10.2976 10.6887 10.4167 10.6887 10.5703H6.68865C6.68865 10.9601 6.78923 11.2799 6.85719 11.4637L10.6089 10.0763ZM10.597 10.057C10.6065 10.076 10.613 10.0901 10.6164 10.0976C10.6182 10.1017 10.6195 10.1047 10.6204 10.1067C10.6212 10.1086 10.6216 10.1096 10.6217 10.1097C10.6217 10.1098 10.6206 10.1071 10.6182 10.1011C10.616 10.0952 10.6128 10.087 10.6089 10.0763L6.8572 11.4637C6.89488 11.5656 6.94989 11.7071 7.01987 11.847L10.597 10.057ZM10.6342 10.1138C10.6083 10.0718 10.5917 10.0442 10.5823 10.0281C10.5778 10.0203 10.5768 10.0185 10.5784 10.0215C10.5795 10.0233 10.5872 10.0372 10.5983 10.0596L7.01854 11.8443C7.08517 11.978 7.17231 12.1208 7.23139 12.2164L10.6342 10.1138ZM10.8247 10.4412C10.7658 10.3231 10.656 10.149 10.6345 10.1142L7.23111 12.2159C7.2459 12.2399 7.2586 12.2605 7.26932 12.278C7.28013 12.2956 7.28833 12.3091 7.29428 12.3189C7.29722 12.3237 7.29926 12.3271 7.30055 12.3293C7.30193 12.3316 7.30184 12.3315 7.3007 12.3295C7.30009 12.3285 7.29889 12.3264 7.29724 12.3236C7.29565 12.3208 7.29307 12.3163 7.2898 12.3105C7.28671 12.3051 7.28159 12.2959 7.27528 12.2843C7.27204 12.2783 7.26792 12.2706 7.26317 12.2616C7.25853 12.2527 7.25231 12.2407 7.24511 12.2263L10.8247 10.4412ZM11.9942 12.0062C11.5614 11.5733 11.1547 11.0322 10.7838 10.3636L7.28598 12.3039C7.81472 13.2571 8.43807 14.1066 9.16516 14.834L11.9942 12.0062ZM13.6364 13.2159C12.9675 12.8448 12.4263 12.4381 11.9935 12.0055L9.1658 14.8347C9.89325 15.5618 10.7429 16.1849 11.6957 16.7136L13.6364 13.2159ZM13.884 13.3642C13.8479 13.342 13.6775 13.2347 13.5643 13.1778L11.7678 16.7517C11.7539 16.7447 11.7423 16.7387 11.7338 16.7342C11.7251 16.7296 11.7177 16.7256 11.712 16.7225C11.7008 16.7164 11.6921 16.7115 11.6869 16.7086C11.6814 16.7054 11.6771 16.703 11.6746 16.7015C11.6719 16.7 11.67 16.6989 11.6691 16.6983C11.6675 16.6974 11.6676 16.6974 11.6701 16.6989C11.6724 16.7003 11.676 16.7025 11.681 16.7055C11.6911 16.7116 11.7048 16.72 11.7228 16.731C11.7405 16.7418 11.7614 16.7547 11.7856 16.7696L13.884 13.3642ZM13.9496 13.4063C13.9688 13.416 13.9804 13.4225 13.9813 13.423C13.9832 13.424 13.9806 13.4226 13.9726 13.4179C13.9562 13.4083 13.9286 13.3918 13.8877 13.3665L11.782 16.7673C11.8833 16.8301 12.0194 16.9126 12.1458 16.9765L13.9496 13.4063ZM13.9248 13.3914C13.9146 13.3876 13.9066 13.3845 13.9006 13.3822C13.8946 13.3799 13.8913 13.3785 13.8904 13.3781C13.8894 13.3777 13.8919 13.3788 13.8975 13.3812C13.9029 13.3836 13.9134 13.3884 13.9281 13.3956L12.1673 16.9872C12.2954 17.05 12.4267 17.102 12.5348 17.1421L13.9248 13.3914ZM13.4297 13.311C13.5834 13.311 13.7025 13.3318 13.7732 13.3475C13.8462 13.3637 13.8971 13.3812 13.9207 13.3899L12.5389 17.1436C12.7202 17.2104 13.0399 17.311 13.4297 17.311V13.311ZM12.4115 13.6563C12.3931 13.675 12.443 13.6191 12.5586 13.5475C12.6585 13.4856 12.9682 13.311 13.4297 13.311V17.311C13.9976 17.311 14.4287 17.0943 14.6647 16.9481C14.9165 16.7922 15.1174 16.6097 15.2647 16.4597L12.4115 13.6563ZM12.7053 13.3119C12.6095 13.4403 12.5111 13.5548 12.4107 13.6571L15.2655 16.4589C15.4963 16.2238 15.7116 15.9716 15.9118 15.7033L12.7053 13.3119ZM13.4186 12.5077C13.1591 12.7544 12.9208 13.0228 12.7049 13.3125L15.9121 15.7027C15.992 15.5955 16.0794 15.4972 16.1749 15.4064L13.4186 12.5077ZM15.2404 11.7041C14.7139 11.7041 14.301 11.8868 14.0499 12.03C13.7897 12.1784 13.5786 12.3557 13.4195 12.5068L16.174 15.4073C16.1923 15.3898 16.1439 15.4406 16.0316 15.5047C15.9283 15.5636 15.6485 15.7041 15.2404 15.7041V11.7041ZM16.3603 11.9637C16.0462 11.8127 15.6669 11.7041 15.2404 11.7041V15.7041C14.9797 15.7041 14.7692 15.6371 14.6266 15.5685L16.3603 11.9637ZM16.9438 12.3103C16.7793 12.1969 16.5796 12.0696 16.363 11.965L14.6239 15.5672C14.6091 15.56 14.5998 15.555 14.5968 15.5534C14.5937 15.5516 14.5948 15.5522 14.6005 15.5556C14.6126 15.5629 14.6365 15.5781 14.6737 15.6038L16.9438 12.3103ZM17.232 12.5135C17.1685 12.4658 17.051 12.3845 16.9469 12.3124L14.6707 15.6017C14.732 15.6441 14.778 15.676 14.8103 15.6987C14.8266 15.7101 14.8372 15.7175 14.8434 15.722C14.8531 15.7288 14.8449 15.7232 14.8294 15.7116L17.232 12.5135ZM17.4836 12.643C17.3305 12.5571 17.1891 12.4752 17.0591 12.3972L15.0023 15.8279C15.168 15.9272 15.3431 16.0287 15.5278 16.1322L17.4836 12.643ZM18.0237 12.9407C17.8231 12.8318 17.6437 12.7329 17.4854 12.644L15.5261 16.1312C15.7049 16.2317 15.9016 16.3401 16.1153 16.4561L18.0237 12.9407ZM18.5536 13.2355C18.4152 13.1551 18.2342 13.0551 18.0244 12.9411L16.1146 16.4557C16.3188 16.5667 16.4577 16.644 16.5438 16.694L18.5536 13.2355Z" fill="white" mask="url(#path-1-outside-1)"/>
</svg>
