<svg width="24" height="24" viewBox="0 0 24 24" fill="none" xmlns="http://www.w3.org/2000/svg">
<path d="M15.3664 14.1264C15.5549 12.7154 15.5549 11.2846 15.3664 9.87359M8.63361 9.87359C8.44505 11.2846 8.44505 12.7154 8.63361 14.1264M14.1264 15.3664C12.7154 15.5549 11.2846 15.5549 9.87359 15.3664M9.87359 8.63361C11.2846 8.44505 12.7154 8.44505 14.1264 8.63361M14.0805 3.24168C17.3802 4.02255 19.9774 6.61983 20.7583 9.91949C19.2669 9.02242 17.6698 8.37401 16.0258 7.97424C15.626 6.33016 14.9776 4.73313 14.0805 3.24168ZM3.24168 9.91949C4.02255 6.61983 6.61983 4.02255 9.91949 3.24168C9.02243 4.73312 8.37401 6.33016 7.97424 7.97424C6.33015 8.37401 4.73312 9.02243 3.24168 9.91949ZM20.7583 14.0805C19.9774 17.3802 17.3802 19.9774 14.0805 20.7583C14.9776 19.2669 15.626 17.6698 16.0258 16.0258C17.6698 15.626 19.2669 14.9776 20.7583 14.0805ZM13.8475 16.4075C13.4298 17.7687 12.814 19.0831 12 20.3065C11.186 19.0831 10.5702 17.7687 10.1525 16.4075C11.3803 16.5412 12.6197 16.5412 13.8475 16.4075ZM7.97424 16.0258C8.37401 17.6698 9.02242 19.2669 9.91949 20.7583C6.61983 19.9774 4.02255 17.3802 3.24168 14.0805C4.73313 14.9776 6.33016 15.626 7.97424 16.0258ZM14.3269 14.3269C12.7856 14.5681 11.2144 14.5681 9.67312 14.3269C9.43188 12.7856 9.43188 11.2144 9.67312 9.67312C11.2144 9.43188 12.7856 9.43188 14.3269 9.67312C14.5681 11.2144 14.5681 12.7856 14.3269 14.3269ZM7.59251 10.1525C7.45875 11.3803 7.45875 12.6197 7.59251 13.8475C6.23133 13.4298 4.91687 12.814 3.69346 12C4.91687 11.186 6.23133 10.5702 7.59251 10.1525ZM10.1525 7.59251C10.5702 6.23133 11.186 4.91687 12 3.69346C12.814 4.91687 13.4298 6.23133 13.8475 7.59251C12.6197 7.45875 11.3803 7.45875 10.1525 7.59251ZM16.4075 13.8475C16.5412 12.6197 16.5412 11.3803 16.4075 10.1525C17.7687 10.5702 19.0831 11.186 20.3065 12C19.0831 12.814 17.7687 13.4298 16.4075 13.8475Z" stroke="#0075DB" stroke-width="2"/>
</svg>
