<svg width="24" height="24" viewBox="0 0 24 24" fill="none" xmlns="http://www.w3.org/2000/svg">
<path fill-rule="evenodd" clip-rule="evenodd" d="M8 4.5C8 4.22386 8.22386 4 8.5 4H15.5C15.7761 4 16 4.22386 16 4.5V6H8V4.5ZM17 4.5V6H20.5C21.3284 6 22 6.67157 22 7.5V11.807C22 12.4323 21.6121 12.9919 21.0267 13.2115L21 13.2215V19.5C21 20.3284 20.3284 21 19.5 21H4.5C3.67157 21 3 20.3284 3 19.5V12.809L2.82918 12.7236C2.321 12.4695 2 11.9501 2 11.382V7.5C2 6.67157 2.67157 6 3.5 6H7V4.5C7 3.67157 7.67157 3 8.5 3H15.5C16.3284 3 17 3.67157 17 4.5ZM17.8454 14.4045L20 13.5965V19.5C20 19.7761 19.7761 20 19.5 20H4.5C4.22386 20 4 19.7761 4 19.5V13.309L6.06525 14.3416C6.27353 14.4458 6.5032 14.5 6.73607 14.5H7V15.5C7 16.3284 7.67157 17 8.5 17C9.32843 17 10 16.3284 10 15.5V14.5H14V15.5C14 16.3284 14.6716 17 15.5 17C16.3284 17 17 16.3284 17 15.5V14.5H17.3187C17.4985 14.5 17.6769 14.4677 17.8454 14.4045ZM7 13.5C7 12.6716 7.67157 12 8.5 12C9.32843 12 10 12.6716 10 13.5H14C14 12.6716 14.6716 12 15.5 12C16.3284 12 17 12.6716 17 13.5H17.3187C17.3786 13.5 17.4381 13.4892 17.4942 13.4682L20.6756 12.2752C20.8707 12.202 21 12.0154 21 11.807V7.5C21 7.22386 20.7761 7 20.5 7H3.5C3.22386 7 3 7.22386 3 7.5V11.382C3 11.5714 3.107 11.7445 3.27639 11.8292L6.51246 13.4472C6.58189 13.4819 6.65845 13.5 6.73607 13.5H7ZM8 13.5C8 13.2239 8.22386 13 8.5 13C8.77614 13 9 13.2239 9 13.5V15.5C9 15.7761 8.77614 16 8.5 16C8.22386 16 8 15.7761 8 15.5V13.5ZM15.5 13C15.2239 13 15 13.2239 15 13.5V15.5C15 15.7761 15.2239 16 15.5 16C15.7761 16 16 15.7761 16 15.5V13.5C16 13.2239 15.7761 13 15.5 13Z" fill="#2D81CE"/>
</svg>
